<?xml version="1.0" standalone="no"?>
<!DOCTYPE svg PUBLIC "-//W3C//DTD SVG 20010904//EN"
 "http://www.w3.org/TR/2001/REC-SVG-20010904/DTD/svg10.dtd">
<svg version="1.0" xmlns="http://www.w3.org/2000/svg"
 width="3489.000000pt" height="3808.000000pt" viewBox="0 0 3489.000000 3808.000000"
 preserveAspectRatio="xMidYMid meet">

<g transform="translate(0.000000,3808.000000) scale(0.100000,-0.100000)"
fill="#000000" stroke="none">
<path d="M7345 25341 c-395 -139 -624 -426 -690 -861 -19 -122 -19 -407 -1
-525 16 -101 353 -2027 361 -2062 7 -30 63 -93 82 -93 13 0 14 9 10 48 -35
269 -30 410 22 646 20 93 29 161 30 235 4 267 89 448 236 498 37 12 55 13 83
5 40 -11 136 -31 138 -29 1 1 -50 166 -113 367 -126 404 -143 481 -124 562 10
47 23 64 129 173 217 221 285 333 303 500 36 333 -83 537 -327 559 -48 5 -73
1 -139 -23z"/>
<path d="M13141 24076 c-35 -13 -80 -37 -100 -53 -48 -39 -97 -113 -116 -176
-19 -65 -19 -205 0 -298 9 -40 14 -73 13 -74 -2 -1 -26 -10 -54 -19 -128 -42
-245 -140 -299 -251 -65 -131 -68 -290 -9 -475 13 -43 115 -262 225 -487 225
-459 212 -410 136 -520 -23 -33 -80 -107 -126 -164 -216 -267 -342 -510 -366
-709 l-7 -55 54 81 c81 121 145 199 249 299 103 100 177 154 285 208 69 35
181 73 190 65 2 -3 14 -42 25 -88 25 -97 21 -174 -11 -247 -38 -85 -110 -181
-175 -233 -165 -131 -534 -573 -612 -732 -30 -60 -43 -72 -43 -37 0 36 -24 6
-70 -87 -45 -90 -66 -203 -41 -219 7 -4 44 18 89 53 92 70 185 125 432 257
102 54 246 132 320 174 257 144 497 231 639 231 110 0 188 -32 178 -72 -7 -23
-3 -23 70 15 45 23 75 48 109 92 169 218 255 405 241 526 -6 49 -108 296 -256
618 l-70 153 24 32 c34 44 90 169 106 236 7 30 13 100 13 155 0 96 -5 118
-133 595 -73 272 -149 538 -168 590 -113 303 -272 521 -440 601 -57 28 -81 33
-153 36 -71 3 -96 -1 -149 -21z"/>
<path d="M6115 22917 c-94 -31 -170 -90 -246 -190 -248 -329 -271 -847 -62
-1406 74 -199 200 -440 327 -626 68 -99 943 -1171 1041 -1275 33 -36 71 -82
84 -102 12 -21 24 -38 26 -38 12 0 -338 712 -420 856 -214 372 -335 676 -335
845 0 69 10 89 45 89 11 0 29 7 39 15 11 8 29 15 41 15 12 0 26 5 31 10 6 6
25 12 42 13 18 1 32 2 32 3 0 1 -57 73 -126 160 -178 223 -209 300 -208 504 2
139 20 231 80 405 81 231 86 253 87 360 2 113 -9 161 -54 228 -36 55 -93 97
-164 122 -64 23 -207 29 -260 12z"/>
<path d="M5327 21100 c-6 -14 -43 -145 -268 -950 -44 -157 -85 -300 -90 -318
l-11 -33 -49 71 c-27 40 -65 91 -85 115 l-35 43 10 184 c6 100 13 244 16 318
4 74 10 205 16 290 5 85 9 184 8 220 -2 132 -17 7 -28 -235 -7 -132 -16 -298
-21 -370 -5 -71 -12 -187 -16 -257 l-6 -127 -63 48 c-131 101 -270 143 -406
123 -209 -30 -432 -187 -578 -407 -62 -93 -158 -288 -196 -395 -22 -63 -33
-80 -68 -105 -66 -47 -196 -175 -234 -230 -41 -61 -88 -202 -103 -313 -24
-177 34 -365 154 -499 42 -47 151 -245 288 -523 138 -280 286 -464 429 -532
86 -42 98 -46 175 -58 165 -27 353 58 534 240 96 97 209 251 226 308 40 132
168 249 370 337 83 36 91 46 179 209 84 154 136 312 155 469 22 177 -33 432
-126 592 -55 93 -185 227 -257 265 -26 14 -47 28 -47 32 0 6 96 219 436 967
106 233 134 305 109 279 -5 -5 -188 -401 -423 -915 l-147 -321 -55 39 c-30 22
-75 56 -99 77 l-43 38 90 324 c50 179 132 473 182 653 50 181 89 336 87 345
-3 15 -5 15 -10 2z m-952 -1330 c78 -38 160 -122 202 -208 36 -71 38 -82 38
-166 0 -74 -4 -99 -22 -131 -60 -114 -202 -178 -323 -145 -49 13 -103 62 -160
145 l-32 47 41 -30 c76 -55 162 -51 230 12 77 71 82 176 13 249 -62 66 -148
79 -226 33 -75 -44 -109 -153 -70 -228 9 -16 11 -27 5 -24 -15 9 -48 104 -60
173 -25 137 38 255 157 294 46 15 155 4 207 -21z m-185 -405 c20 -24 -3 -65
-35 -65 -32 0 -55 41 -35 65 7 8 23 15 35 15 12 0 28 -7 35 -15z m891 -118
c18 -12 48 -42 67 -67 20 -26 48 -49 68 -56 122 -42 197 -214 181 -416 -12
-143 -99 -250 -228 -281 -18 -5 -32 -19 -44 -47 -10 -23 -34 -55 -53 -72 -32
-27 -40 -30 -88 -26 -36 3 -67 14 -96 33 -54 36 -34 45 25 11 110 -65 191 -4
227 169 25 121 9 209 -51 271 l-29 30 37 31 c53 42 95 123 96 183 2 99 -95
231 -170 234 -34 1 -40 -3 -55 -32 -23 -46 -28 -50 -28 -18 0 36 41 76 78 76
16 0 44 -10 63 -23z m-265 -268 c40 -24 77 -76 128 -177 47 -93 58 -122 47
-122 -5 0 -29 42 -54 93 -56 113 -96 168 -140 192 -41 22 -61 16 -82 -25 -18
-34 -40 -185 -51 -347 -3 -57 -11 -103 -16 -103 -10 0 -7 55 13 270 21 218 62
277 155 219z m-410 -604 c85 -50 128 -168 122 -330 -3 -94 -6 -108 -41 -178
-78 -158 -261 -260 -391 -217 -47 15 -110 88 -136 156 -20 55 -25 154 -11 219
7 29 7 29 19 -17 6 -25 24 -61 39 -79 28 -33 94 -68 128 -69 65 0 142 45 171
102 20 39 20 118 -1 163 -47 97 -192 128 -276 57 l-32 -26 24 44 c36 65 119
146 160 155 19 4 50 16 69 26 50 26 105 24 156 -6z m-311 -249 c0 -52 -63 -62
-73 -12 -7 33 6 47 40 44 29 -3 33 -7 33 -32z"/>
<path d="M5208 19039 c6 -86 -12 -139 -69 -200 -32 -35 -38 -47 -30 -59 7 -8
23 -39 38 -69 23 -49 25 -61 20 -140 -3 -47 -9 -96 -13 -109 l-7 -23 54 20
c66 25 133 90 156 151 27 67 23 254 -5 332 -26 73 -65 124 -112 148 l-37 19 5
-70z"/>
<path d="M3340 20139 c-357 -79 -483 -112 -639 -165 -268 -90 -254 -82 -249
-158 4 -66 28 -122 81 -191 16 -22 141 -131 276 -242 l246 -201 14 36 c8 21
62 132 121 247 158 314 222 401 459 632 80 79 144 142 141 142 -3 -1 -205 -45
-450 -100z"/>
<path d="M21240 18833 c-103 -9 -545 -81 -668 -109 -633 -144 -1223 -516
-1624 -1023 -71 -90 -86 -113 -498 -749 l-332 -512 -117 -111 c-472 -452
-1023 -720 -1600 -780 -117 -12 -470 -8 -504 6 -14 6 -21 -1 -35 -36 -56 -146
-177 -359 -279 -492 -25 -32 -44 -60 -42 -61 17 -14 142 -50 242 -71 194 -39
345 -48 665 -42 390 7 689 39 926 98 476 119 914 414 1201 810 29 41 88 137
130 214 170 312 354 554 630 831 132 132 205 197 273 242 298 198 688 302
1192 318 179 6 427 -5 570 -26 285 -42 773 -62 981 -41 286 30 445 91 531 206
54 72 114 189 133 265 25 97 17 262 -19 354 -74 193 -266 375 -541 511 -208
103 -432 167 -687 194 -90 10 -426 12 -528 4z"/>
<path d="M2769 17997 c-334 -166 -480 -268 -559 -394 -52 -81 -34 -152 61
-237 102 -91 154 -109 918 -311 387 -103 711 -189 720 -192 9 -3 -23 19 -72
48 -142 88 -206 138 -322 254 -136 136 -218 251 -300 420 -74 152 -118 287
-143 437 -9 59 -21 108 -27 107 -5 0 -130 -60 -276 -132z"/>
</g>
</svg>
